<svg class="svg-icon" style="width: 1em; height: 1em;vertical-align: middle;fill: currentColor;overflow: hidden;" viewBox="0 0 1024 1024" version="1.1" xmlns="http://www.w3.org/2000/svg"><path d="M545.856 640h-1.216c-17.216 0-33.12-13.12-44.832-25.952l-36.992-43.392c-11.904-13.056-10.944-34.688 2.112-46.56 13.088-11.936 33.312-11.648 45.216 1.408l36.992 40.256 173.472-179.136-49.888-54.144-72 74.144c-12.48 12.544-32.704 12.672-45.248 0.192-12.576-12.416-12.672-32.704-0.256-45.248l73.44-74.176c12.128-12.256 28.992-18.336 45.408-18.752 17.184 0.16 33.184 7.168 45.056 19.68l49.888 52.512c23.872 25.12 23.52 65.728-0.736 90.464l-176 184.448c-12 12.128-27.68 24.256-44.416 24.256zM351.968 754.592c-16.32 0-32.64-6.048-45.088-18.208l-50.432-49.216c-12.224-11.936-19.04-27.936-19.2-45.056-0.128-17.152 6.4-33.28 18.464-45.44l179.04-187.104C446.784 397.44 462.848 384 479.968 384h0.16c17.088 0 33.12 13.344 45.152 25.376l41.312 44.672c12.512 12.512 12.512 34.432 0 46.912-12.512 12.512-32.736 13.344-45.248 0.832l-41.312-40.896-178.848 180.608 50.4 48.96 74.944-73.344c12.608-12.416 32.8-12.32 45.28 0.288 12.416 12.576 12.32 32.832-0.224 45.248l-74.176 73.408c-12.512 12.32-28.992 18.528-45.44 18.528zM512 960C264.96 960 64 759.04 64 512S264.96 64 512 64s448 200.96 448 448-200.96 448-448 448z m0-832c-211.744 0-384 172.256-384 384s172.256 384 384 384 384-172.256 384-384-172.256-384-384-384z" fill="#333333" /></svg>